<svg width="7" height="14" viewBox="0 0 7 14" fill="none" xmlns="http://www.w3.org/2000/svg">
<path d="M5.60375 6.00084H1.87639C1.71966 6.00123 1.56545 5.95832 1.42847 5.87619C1.2915 5.79407 1.17633 5.67547 1.09395 5.53172C1.01157 5.38796 0.96473 5.22385 0.957902 5.05503C0.951075 4.88622 0.984485 4.71833 1.05495 4.56739L2.91886 0.547334C2.98991 0.392449 3.09757 0.260491 3.231 0.164754C3.36442 0.0690168 3.51889 0.0128829 3.67885 0.00200792C3.85932 -0.0103747 4.0392 0.0347168 4.19609 0.131674C4.35299 0.228632 4.47998 0.373177 4.56129 0.547334L6.4252 4.56739C6.49525 4.71838 6.52834 4.88616 6.52133 5.05481C6.51431 5.22346 6.46743 5.38738 6.38513 5.531C6.30282 5.67462 6.18783 5.79318 6.05108 5.87541C5.91432 5.95764 5.76034 6.00082 5.60375 6.00084Z" fill="#6A6A6A"/>
<path d="M1.87574 8.00062H5.6031C5.75983 8.00023 5.91404 8.04314 6.05102 8.12527C6.18799 8.2074 6.30317 8.32599 6.38555 8.46975C6.46792 8.6135 6.51476 8.77761 6.52159 8.94643C6.52842 9.11525 6.49501 9.28313 6.42455 9.43407L4.56064 13.4541C4.48958 13.609 4.38192 13.741 4.24849 13.8367C4.11507 13.9324 3.9606 13.9886 3.80065 13.9995C3.62017 14.0118 3.4403 13.9667 3.2834 13.8698C3.1265 13.7728 2.99951 13.6283 2.9182 13.4541L1.05429 9.43407C0.984242 9.28309 0.951152 9.1153 0.958166 8.94665C0.965179 8.778 1.01206 8.61408 1.09437 8.47046C1.17667 8.32684 1.29166 8.20828 1.42841 8.12605C1.56517 8.04382 1.71915 8.00065 1.87574 8.00062Z" fill="#6A6A6A"/>
</svg>
