<svg width="26" height="26" viewBox="0 0 26 26" fill="none" xmlns="http://www.w3.org/2000/svg">
<rect y="0.0227051" width="25.17" height="25.1826" rx="12.585" fill="#476EE6"/>
<mask id="path-2-inside-1_1502_1503" fill="white">
<path d="M15.0275 16.3929L11.1849 12.5399L15.0275 8.687L13.8445 7.50342L8.81055 12.5399L13.8445 17.5765L15.0275 16.3929Z"/>
</mask>
<path d="M15.0275 16.3929L16.4421 17.8067C17.2221 17.0264 17.2228 15.7618 16.4436 14.9806L15.0275 16.3929ZM11.1849 12.5399L9.76881 11.1276C8.99029 11.9082 8.99029 13.1716 9.76881 13.9523L11.1849 12.5399ZM15.0275 8.687L16.4436 10.0993C17.2228 9.3181 17.2221 8.0535 16.4421 7.27314L15.0275 8.687ZM13.8445 7.50342L15.2591 6.08956C14.884 5.71427 14.3752 5.50342 13.8445 5.50342C13.3139 5.50342 12.8051 5.71427 12.43 6.08956L13.8445 7.50342ZM8.81055 12.5399L7.39598 11.1261C6.6154 11.907 6.6154 13.1728 7.39598 13.9538L8.81055 12.5399ZM13.8445 17.5765L12.43 18.9903C12.8051 19.3656 13.3139 19.5765 13.8445 19.5765C14.3752 19.5765 14.884 19.3656 15.2591 18.9903L13.8445 17.5765ZM16.4436 14.9806L12.601 11.1276L9.76881 13.9523L13.6114 17.8052L16.4436 14.9806ZM12.601 13.9523L16.4436 10.0993L13.6114 7.27468L9.76881 11.1276L12.601 13.9523ZM16.4421 7.27314L15.2591 6.08956L12.43 8.91728L13.613 10.1009L16.4421 7.27314ZM12.43 6.08956L7.39598 11.1261L10.2251 13.9538L15.2591 8.91728L12.43 6.08956ZM7.39598 13.9538L12.43 18.9903L15.2591 16.1626L10.2251 11.1261L7.39598 13.9538ZM15.2591 18.9903L16.4421 17.8067L13.613 14.979L12.43 16.1626L15.2591 18.9903Z" fill="white" mask="url(#path-2-inside-1_1502_1503)"/>
</svg>
