<svg width="27" height="28" viewBox="0 0 27 28" fill="none" xmlns="http://www.w3.org/2000/svg">
<rect x="0.5" y="0.622559" width="26" height="26.0106" rx="13" fill="white" stroke="#476EE6"/>
<mask id="path-2-inside-1_1502_2096" fill="white">
<path d="M15.925 17.4538L12.1083 13.6271L15.925 9.8005L14.75 8.625L9.75 13.6271L14.75 18.6293L15.925 17.4538Z"/>
</mask>
<path d="M15.925 17.4538L17.3395 18.8677C18.1196 18.0873 18.1202 16.8226 17.3411 16.0414L15.925 17.4538ZM12.1083 13.6271L10.6923 12.2148C9.91368 12.9954 9.91368 14.2589 10.6923 15.0395L12.1083 13.6271ZM15.925 9.8005L17.3411 11.2129C18.1202 10.4316 18.1196 9.16696 17.3395 8.38659L15.925 9.8005ZM14.75 8.625L16.1645 7.21109C15.7894 6.83583 15.2806 6.625 14.75 6.625C14.2194 6.625 13.7106 6.83583 13.3355 7.21109L14.75 8.625ZM9.75 13.6271L8.33549 12.2132C7.55484 12.9942 7.55484 14.2601 8.33549 15.041L9.75 13.6271ZM14.75 18.6293L13.3355 20.0432C13.7106 20.4184 14.2194 20.6293 14.75 20.6293C15.2806 20.6293 15.7894 20.4184 16.1645 20.0432L14.75 18.6293ZM17.3411 16.0414L13.5244 12.2148L10.6923 15.0395L14.5089 18.8661L17.3411 16.0414ZM13.5244 15.0395L17.3411 11.2129L14.5089 8.38813L10.6923 12.2148L13.5244 15.0395ZM17.3395 8.38659L16.1645 7.21109L13.3355 10.0389L14.5105 11.2144L17.3395 8.38659ZM13.3355 7.21109L8.33549 12.2132L11.1645 15.041L16.1645 10.0389L13.3355 7.21109ZM8.33549 15.041L13.3355 20.0432L16.1645 17.2153L11.1645 12.2132L8.33549 15.041ZM16.1645 20.0432L17.3395 18.8677L14.5105 16.0398L13.3355 17.2153L16.1645 20.0432Z" fill="#476EE6" mask="url(#path-2-inside-1_1502_2096)"/>
</svg>
