<svg width="23" height="23" viewBox="0 0 23 23" fill="none" xmlns="http://www.w3.org/2000/svg">
<g clip-path="url(#clip0_1502_162)">
<path d="M11.5 0C9.22552 0 7.00211 0.674463 5.11095 1.9381C3.21978 3.20174 1.7458 4.99779 0.875391 7.09914C0.00498279 9.20049 -0.222756 11.5128 0.220974 13.7435C0.664704 15.9743 1.75997 18.0234 3.36828 19.6317C4.97658 21.24 7.02569 22.3353 9.25647 22.779C11.4872 23.2228 13.7995 22.995 15.9009 22.1246C18.0022 21.2542 19.7983 19.7802 21.0619 17.8891C22.3255 15.9979 23 13.7745 23 11.5C22.9967 8.45102 21.784 5.52787 19.6281 3.37191C17.4721 1.21596 14.549 0.0032977 11.5 0ZM11.5 21.0833C9.6046 21.0833 7.75176 20.5213 6.17579 19.4683C4.59982 18.4152 3.3715 16.9185 2.64616 15.1674C1.92082 13.4163 1.73104 11.4894 2.10081 9.63039C2.47059 7.7714 3.38331 6.06381 4.72357 4.72356C6.06382 3.38331 7.77141 2.47058 9.63039 2.10081C11.4894 1.73103 13.4163 1.92081 15.1674 2.64615C16.9185 3.37149 18.4152 4.59981 19.4683 6.17579C20.5213 7.75176 21.0833 9.6046 21.0833 11.5C21.0805 14.0408 20.07 16.4767 18.2734 18.2734C16.4767 20.07 14.0408 21.0805 11.5 21.0833Z" fill="#476EE6"/>
<path d="M11.5003 4.79175C11.2462 4.79175 11.0024 4.89272 10.8227 5.07244C10.643 5.25216 10.542 5.49592 10.542 5.75008V13.4167C10.542 13.6709 10.643 13.9147 10.8227 14.0944C11.0024 14.2741 11.2462 14.3751 11.5003 14.3751C11.7545 14.3751 11.9982 14.2741 12.178 14.0944C12.3577 13.9147 12.4587 13.6709 12.4587 13.4167V5.75008C12.4587 5.49592 12.3577 5.25216 12.178 5.07244C11.9982 4.89272 11.7545 4.79175 11.5003 4.79175Z" fill="#476EE6"/>
<path d="M12.4587 17.2501C12.4587 16.7208 12.0296 16.2917 11.5003 16.2917C10.9711 16.2917 10.542 16.7208 10.542 17.2501C10.542 17.7794 10.9711 18.2084 11.5003 18.2084C12.0296 18.2084 12.4587 17.7794 12.4587 17.2501Z" fill="#476EE6"/>
</g>
<defs>
<clipPath id="clip0_1502_162">
<rect width="23" height="23" fill="white"/>
</clipPath>
</defs>
</svg>
